<svg width="36" height="36" viewBox="0 0 36 36" fill="none" xmlns="http://www.w3.org/2000/svg">
<path d="M28.5697 7.43032C27.1841 6.03105 25.5358 4.91935 23.7193 4.15906C21.9028 3.39877 19.9539 3.00489 17.9848 3.00005C16.0156 2.9952 14.0648 3.37948 12.2446 4.13082C10.4244 4.88215 8.77058 5.98573 7.37816 7.37816C5.98573 8.77058 4.88215 10.4244 4.13082 12.2446C3.37948 14.0648 2.9952 16.0156 3.00005 17.9848C3.00489 19.9539 3.39877 21.9028 4.15906 23.7193C4.91935 25.5358 6.03105 27.1841 7.43032 28.5697C8.81587 29.9689 10.4642 31.0807 12.2807 31.8409C14.0972 32.6012 16.0461 32.9951 18.0152 33C19.9844 33.0048 21.9352 32.6205 23.7554 31.8692C25.5756 31.1178 27.2294 30.0143 28.6218 28.6218C30.0143 27.2294 31.1178 25.5756 31.8692 23.7554C32.6205 21.9352 33.0048 19.9844 33 18.0152C32.9951 16.0461 32.6012 14.0972 31.8409 12.2807C31.0807 10.4642 29.9689 8.81587 28.5697 7.43032ZM22.8047 14.7969C23.1215 14.7969 23.4311 14.8908 23.6945 15.0668C23.9579 15.2428 24.1631 15.4929 24.2844 15.7855C24.4056 16.0782 24.4373 16.4002 24.3755 16.7109C24.3137 17.0216 24.1612 17.3069 23.9372 17.5309C23.7132 17.7549 23.4278 17.9074 23.1172 17.9692C22.8065 18.031 22.4845 17.9993 22.1918 17.8781C21.8992 17.7569 21.649 17.5516 21.4731 17.2882C21.2971 17.0248 21.2031 16.7152 21.2031 16.3984C21.2026 16.188 21.2437 15.9795 21.324 15.7849C21.4043 15.5904 21.5222 15.4136 21.671 15.2648C21.8199 15.116 21.9966 14.998 22.1912 14.9177C22.3857 14.8374 22.5942 14.7963 22.8047 14.7969ZM13.1953 14.7969C13.5121 14.7969 13.8217 14.8908 14.0851 15.0668C14.3485 15.2428 14.5537 15.4929 14.675 15.7855C14.7962 16.0782 14.8279 16.4002 14.7661 16.7109C14.7043 17.0216 14.5518 17.3069 14.3278 17.5309C14.1038 17.7549 13.8184 17.9074 13.5077 17.9692C13.1971 18.031 12.875 17.9993 12.5824 17.8781C12.2898 17.7569 12.0396 17.5516 11.8636 17.2882C11.6877 17.0248 11.5937 16.7152 11.5937 16.3984C11.5932 16.188 11.6343 15.9795 11.7146 15.7849C11.7949 15.5904 11.9128 15.4136 12.0616 15.2648C12.2105 15.116 12.3872 14.998 12.5818 14.9177C12.7763 14.8374 12.9848 14.7963 13.1953 14.7969ZM18.0033 26.5417C14.9724 26.5417 12.4145 24.5738 11.6157 21.8818C11.5463 21.6469 11.4603 21.2031 11.4603 21.2031H24.5397C24.5397 21.2031 24.4523 21.6496 24.3843 21.8818C23.5982 24.5751 21.0343 26.5417 18.0033 26.5417Z" fill="white"/>
</svg>
