<svg width="24" height="24" viewBox="0 0 24 24" fill="none" xmlns="http://www.w3.org/2000/svg">
<path d="M12.7499 21.7497C12.6498 21.7498 12.5506 21.7297 12.4583 21.6908C12.366 21.6519 12.2824 21.5949 12.2125 21.5231C12.1426 21.4514 12.0878 21.3664 12.0513 21.2731C12.0148 21.1798 11.9973 21.0802 11.9999 20.98V12.3808C11.9999 12.2814 11.9604 12.186 11.8901 12.1157C11.8198 12.0453 11.7244 12.0058 11.6249 12.0058H3.01917C2.86142 12.0077 2.70696 11.9607 2.57697 11.8713C2.44697 11.782 2.34781 11.6546 2.29307 11.5066C2.23074 11.3302 2.23662 11.1368 2.30956 10.9645C2.3825 10.7921 2.51723 10.6533 2.68729 10.5752L20.6873 2.31817C20.8264 2.25445 20.9816 2.23477 21.1321 2.26179C21.2827 2.2888 21.4214 2.36121 21.5297 2.4693C21.6379 2.57738 21.7105 2.71599 21.7377 2.86651C21.765 3.01704 21.7455 3.17229 21.682 3.31145L13.432 21.3114C13.3722 21.4422 13.2762 21.553 13.1553 21.6307C13.0344 21.7084 12.8937 21.7497 12.7499 21.7497Z" fill="black"/>
</svg>
