<svg width="48" height="48" viewBox="0 0 48 48" fill="none" xmlns="http://www.w3.org/2000/svg">
<path d="M24 4.5C13.2478 4.5 4.5 13.2487 4.5 24C4.5 34.7681 13.2319 43.5 24 43.5C34.7522 43.5 43.5 34.7522 43.5 24C43.5 13.2309 34.7691 4.5 24 4.5ZM24 33.8438C21.6628 33.8438 19.4213 32.9153 17.7686 31.2626C16.116 29.61 15.1875 27.3685 15.1875 25.0312C15.1875 22.694 16.116 20.4525 17.7686 18.7999C19.4213 17.1472 21.6628 16.2188 24 16.2188H24.3947L23.0719 14.8969C22.8257 14.6507 22.6874 14.3169 22.6874 13.9688C22.6874 13.6206 22.8257 13.2868 23.0719 13.0406C23.318 12.7945 23.6519 12.6562 24 12.6562C24.3481 12.6562 24.682 12.7945 24.9281 13.0406L28.6781 16.7906C28.8 16.9125 28.8967 17.0572 28.9627 17.2164C29.0286 17.3757 29.0626 17.5464 29.0626 17.7188C29.0626 17.8911 29.0286 18.0618 28.9627 18.2211C28.8967 18.3803 28.8 18.525 28.6781 18.6469L24.9281 22.3969C24.682 22.643 24.3481 22.7813 24 22.7813C23.6519 22.7813 23.318 22.643 23.0719 22.3969C22.8257 22.1507 22.6874 21.8169 22.6874 21.4688C22.6874 21.1206 22.8257 20.7868 23.0719 20.5406L24.7594 18.8531C24.5363 18.8438 24.2812 18.8438 24 18.8438C22.7762 18.8438 21.5799 19.2066 20.5624 19.8865C19.5449 20.5664 18.7518 21.5328 18.2835 22.6634C17.8152 23.794 17.6926 25.0381 17.9314 26.2384C18.1701 27.4386 18.7594 28.5411 19.6248 29.4065C20.4901 30.2718 21.5926 30.8611 22.7929 31.0999C23.9931 31.3386 25.2372 31.2161 26.3679 30.7478C27.4985 30.2794 28.4648 29.4864 29.1447 28.4688C29.8246 27.4513 30.1875 26.255 30.1875 25.0312C30.1875 24.6832 30.3258 24.3493 30.5719 24.1032C30.8181 23.857 31.1519 23.7188 31.5 23.7188C31.8481 23.7188 32.1819 23.857 32.4281 24.1032C32.6742 24.3493 32.8125 24.6832 32.8125 25.0312C32.8098 27.3676 31.8804 29.6075 30.2284 31.2596C28.5763 32.9117 26.3364 33.841 24 33.8438Z" fill="#86C74A"/>
</svg>
