<svg width="60" height="60" viewBox="0 0 60 60" fill="none" xmlns="http://www.w3.org/2000/svg">
<path d="M26.0938 28.625H16.5312C15.8599 28.625 15.2161 28.3583 14.7414 27.8836C14.2667 27.4089 14 26.7651 14 26.0938V16.5312C14 15.8599 14.2667 15.2161 14.7414 14.7414C15.2161 14.2667 15.8599 14 16.5312 14H26.0938C26.7651 14 27.4089 14.2667 27.8836 14.7414C28.3583 15.2161 28.625 15.8599 28.625 16.5312V26.0938C28.625 26.7651 28.3583 27.4089 27.8836 27.8836C27.4089 28.3583 26.7651 28.625 26.0938 28.625ZM42.9688 28.625H33.4062C32.7349 28.625 32.0911 28.3583 31.6164 27.8836C31.1417 27.4089 30.875 26.7651 30.875 26.0938V16.5312C30.875 15.8599 31.1417 15.2161 31.6164 14.7414C32.0911 14.2667 32.7349 14 33.4062 14H42.9688C43.6401 14 44.2839 14.2667 44.7586 14.7414C45.2333 15.2161 45.5 15.8599 45.5 16.5312V26.0938C45.5 26.7651 45.2333 27.4089 44.7586 27.8836C44.2839 28.3583 43.6401 28.625 42.9688 28.625ZM26.0938 45.5H16.5312C15.8599 45.5 15.2161 45.2333 14.7414 44.7586C14.2667 44.2839 14 43.6401 14 42.9688V33.4062C14 32.7349 14.2667 32.0911 14.7414 31.6164C15.2161 31.1417 15.8599 30.875 16.5312 30.875H26.0938C26.7651 30.875 27.4089 31.1417 27.8836 31.6164C28.3583 32.0911 28.625 32.7349 28.625 33.4062V42.9688C28.625 43.6401 28.3583 44.2839 27.8836 44.7586C27.4089 45.2333 26.7651 45.5 26.0938 45.5ZM42.9688 45.5H33.4062C32.7349 45.5 32.0911 45.2333 31.6164 44.7586C31.1417 44.2839 30.875 43.6401 30.875 42.9688V33.4062C30.875 32.7349 31.1417 32.0911 31.6164 31.6164C32.0911 31.1417 32.7349 30.875 33.4062 30.875H42.9688C43.6401 30.875 44.2839 31.1417 44.7586 31.6164C45.2333 32.0911 45.5 32.7349 45.5 33.4062V42.9688C45.5 43.6401 45.2333 44.2839 44.7586 44.7586C44.2839 45.2333 43.6401 45.5 42.9688 45.5Z" fill="#C5C8CE"/>
</svg>
