<svg width="36" height="36" viewBox="0 0 36 36" fill="none" xmlns="http://www.w3.org/2000/svg">
<path d="M9.40039 2.03516H25.5996C27.0233 2.03651 28.3881 2.53056 29.3936 3.4082C30.3989 4.28582 30.9633 5.47507 30.9648 6.71387V33.8184C30.9648 34.1199 30.8272 34.4101 30.5811 34.625C30.3348 34.8399 30.0003 34.9618 29.6504 34.9619C29.3276 34.9627 29.0155 34.8604 28.7744 34.6748L17.5215 25.9395L17.5 25.9229L17.4785 25.9395L6.22559 34.6748C6.03603 34.8219 5.80058 34.9176 5.54883 34.9512C5.29732 34.9847 5.04027 34.9543 4.80859 34.8633C4.57678 34.7721 4.38007 34.6249 4.24316 34.4395C4.1063 34.254 4.0345 34.0379 4.03516 33.8184V6.71387L4.04199 6.48242C4.10892 5.3278 4.66387 4.23101 5.60645 3.4082C6.54909 2.58543 7.80716 2.09967 9.13379 2.04102L9.40039 2.03516Z" fill="white" stroke="white" stroke-width="0.0703125"/>
</svg>
