<svg width="24" height="24" viewBox="0 0 24 24" fill="none" xmlns="http://www.w3.org/2000/svg">
<path d="M10.232 10.2307C11.1391 9.32362 12.3602 8.79992 13.6426 8.7679C14.925 8.73589 16.1707 9.19801 17.122 10.0587L17.303 10.2307L20.131 13.0597C21.052 13.9824 21.5763 15.2283 21.592 16.5319C21.6077 17.8355 21.1136 19.0937 20.215 20.0382C19.3165 20.9828 18.0845 21.5391 16.7818 21.5885C15.479 21.6379 14.2085 21.1765 13.241 20.3027L13.061 20.1307L10.939 18.0087C10.7596 17.8287 10.6555 17.5873 10.6478 17.3333C10.64 17.0794 10.7292 16.832 10.8972 16.6414C11.0653 16.4508 11.2995 16.3314 11.5525 16.3073C11.8054 16.2832 12.058 16.3563 12.259 16.5117L12.353 16.5947L14.475 18.7167C15.0251 19.27 15.769 19.5872 16.5491 19.6011C17.3292 19.6149 18.084 19.3244 18.6534 18.791C19.2228 18.2576 19.562 17.5234 19.5991 16.7441C19.6362 15.9648 19.3682 15.2017 18.852 14.6167L18.717 14.4737L15.889 11.6457C15.6104 11.3671 15.2797 11.146 14.9157 10.9952C14.5516 10.8444 14.1615 10.7668 13.7675 10.7668C13.3735 10.7668 12.9833 10.8444 12.6193 10.9952C12.2553 11.146 11.9246 11.3671 11.646 11.6457C11.4583 11.8332 11.2039 11.9385 10.9386 11.9384C10.6734 11.9383 10.419 11.8328 10.2315 11.6452C10.044 11.4575 9.93869 11.2031 9.93878 10.9378C9.93888 10.6726 10.0443 10.4182 10.232 10.2307ZM3.86799 3.86669C4.77512 2.95962 5.99618 2.43592 7.27861 2.4039C8.56105 2.37189 9.80673 2.83401 10.758 3.69469L10.939 3.86669L13.06 5.98969C13.2393 6.16965 13.3435 6.41112 13.3512 6.66507C13.359 6.91902 13.2698 7.1664 13.1017 7.35697C12.9337 7.54753 12.6994 7.66699 12.4465 7.69109C12.1936 7.71518 11.941 7.6421 11.74 7.48669L11.646 7.40369L9.52498 5.28269C8.97395 4.73525 8.23207 4.42286 7.45542 4.41126C6.67877 4.39966 5.92789 4.68974 5.36075 5.22047C4.79361 5.75121 4.45443 6.48123 4.41456 7.25695C4.37469 8.03266 4.63725 8.79361 5.14698 9.37969L5.28199 9.52369L8.11098 12.3527C8.67357 12.9151 9.43649 13.231 10.232 13.231C11.0275 13.231 11.7904 12.9151 12.353 12.3527C12.4458 12.2598 12.5561 12.1861 12.6774 12.1358C12.7987 12.0854 12.9288 12.0595 13.0601 12.0595C13.1915 12.0594 13.3216 12.0853 13.4429 12.1355C13.5643 12.1857 13.6746 12.2593 13.7675 12.3522C13.8604 12.445 13.9341 12.5553 13.9844 12.6766C14.0347 12.7979 14.0606 12.928 14.0607 13.0593C14.0607 13.1907 14.0349 13.3208 13.9847 13.4421C13.9345 13.5635 13.8608 13.6738 13.768 13.7667C12.8609 14.6738 11.6398 15.1975 10.3574 15.2295C9.07492 15.2615 7.82925 14.7994 6.87799 13.9387L6.69598 13.7667L3.86799 10.9377C2.93063 10 2.40405 8.72851 2.40405 7.40269C2.40405 6.07687 2.93063 4.80433 3.86799 3.86669Z" fill="black"/>
</svg>
