<svg width="36" height="36" viewBox="0 0 36 36" fill="none" xmlns="http://www.w3.org/2000/svg">
<path d="M10.5 36C10.2158 36 9.94332 35.8784 9.74239 35.662C9.54145 35.4457 9.42857 35.1522 9.42857 34.8462V30.2308H7.82143C6.54314 30.2292 5.31762 29.6817 4.41373 28.7083C3.50984 27.7349 3.00142 26.4151 3 25.0385V11.1923C3.00142 9.81569 3.50984 8.49589 4.41373 7.52248C5.31762 6.54906 6.54314 6.00153 7.82143 6H28.1786C29.4569 6.00153 30.6824 6.54906 31.5863 7.52248C32.4902 8.49589 32.9986 9.81569 33 11.1923V25.0385C32.9986 26.4151 32.4902 27.7349 31.5863 28.7083C30.6824 29.6817 29.4569 30.2292 28.1786 30.2308H17.3129L11.1864 35.7325C10.9936 35.9051 10.7508 35.9998 10.5 36Z" fill="white"/>
</svg>
