<svg width="168" height="173" viewBox="0 0 168 173" fill="none" xmlns="http://www.w3.org/2000/svg">
<path d="M16.9074 101.935L25.811 99.8963C34.7131 101.487 51.0292 105.846 45.0769 110.562C37.6367 116.456 30.6521 119.435 21.9591 121.034C13.2662 122.633 6.50115 119.761 4.1618 114.16C2.27043 109.632 5.89009 105.473 7.99241 104.673C7.7213 103.633 7.19152 99.9205 10.396 98.8924C13.3487 97.9452 16.0641 100.347 16.9074 101.935Z" fill="#C1EB79"/>
<path d="M140.425 104.082L127.017 101.803C118.23 103.94 106.61 110.091 112.841 114.43C120.631 119.854 127.786 122.397 136.561 123.457C145.336 124.517 151.911 121.233 153.901 115.499C155.509 110.862 151.64 106.935 149.492 106.266C149.699 105.211 149.999 101.473 146.737 100.645C143.731 99.8813 141.169 102.446 140.425 104.082Z" fill="#C1EB79"/>
<path d="M51.9598 156.995L51.4297 141.896L74.489 144.857V172.685H44.8034C40.9867 164.396 47.984 158.771 51.9598 156.995Z" fill="#C1EB79"/>
<path d="M105.719 156.995L106.25 141.896L83.1902 144.857V172.685H112.876C116.693 164.396 109.695 158.771 105.719 156.995Z" fill="#C1EB79"/>
<path d="M52.0935 55.9503C52.2359 57.6076 53.6948 58.8358 55.3521 58.6935C57.0095 58.5511 58.2377 57.0922 58.0953 55.4348L55.0944 55.6926L52.0935 55.9503ZM40.8286 41.4414L40.4702 44.432C42.2311 44.643 44.8901 44.9918 47.2405 46.5053C49.4054 47.8994 51.6249 50.493 52.0935 55.9503L55.0944 55.6926L58.0953 55.4348C57.4757 48.2202 54.3193 43.8988 50.5019 41.4406C46.8699 39.1018 42.9401 38.661 41.187 38.4509L40.8286 41.4414Z" fill="#ACDD56"/>
<path d="M2.71687 43.5469C3.76905 43.4995 36.379 60.817 46.1683 41.4244C40.2985 32.2201 23.3904 19.7586 2.71687 43.5469Z" fill="#ACDD56"/>
<path d="M2.73257 43.559C9.72336 39.6103 27.8026 33.4924 44.193 40.61C36.626 35.6883 17.74 29.3878 2.73257 43.559Z" fill="#E9FFC4"/>
<path d="M58.1855 0.915548C57.8809 1.92456 66.6392 37.8221 45.451 42.544C37.9789 34.5837 30.0648 15.1136 58.1855 0.915548Z" fill="#ACDD56"/>
<path d="M58.1938 0.934993C52.6512 6.74436 42.2823 22.7762 45.1479 40.4284C42.2406 31.8761 40.7797 12.0042 58.1938 0.934993Z" fill="#E9FFC4"/>
<g filter="url(#filter0_d_5168_28758)">
<circle cx="78.8395" cy="96.7174" r="53.8805" fill="#C1EB79"/>
</g>
<path d="M83.1899 107.092C81.715 104.566 77.7759 101.031 73.8194 107.092" stroke="black" stroke-width="2.00797" stroke-linecap="round"/>
<ellipse cx="65.2856" cy="95.0442" rx="5.52191" ry="7.36255" fill="black"/>
<circle cx="63.4451" cy="93.2029" r="1.84064" fill="white"/>
<ellipse cx="91.3896" cy="95.0442" rx="5.52191" ry="7.36255" fill="black"/>
<circle cx="89.5486" cy="93.2029" r="1.84064" fill="white"/>
<ellipse cx="55.748" cy="103.745" rx="3.34661" ry="2.00797" fill="#FFABA1"/>
<ellipse cx="103.27" cy="102.406" rx="3.34661" ry="2.00797" fill="#FFABA1"/>
<path d="M61.9353 104.764C61.8911 104.713 61.8362 104.671 61.7745 104.643C61.7128 104.614 61.6457 104.6 61.5778 104.6C61.5099 104.6 61.4427 104.614 61.381 104.643C61.3193 104.671 61.2645 104.713 61.2203 104.764C59.9787 106.216 55.9302 111.237 55.9302 114.956C55.9302 118.422 58.1123 120.604 61.5776 120.604C65.0429 120.604 67.225 118.422 67.225 114.956C67.225 111.237 63.1765 106.216 61.9353 104.764ZM62.2051 118.564C62.1297 118.564 62.0554 118.546 61.9884 118.512C61.9214 118.477 61.8637 118.427 61.8201 118.366C61.7765 118.304 61.7483 118.233 61.7379 118.159C61.7275 118.084 61.7352 118.008 61.7603 117.937C61.7924 117.844 61.853 117.764 61.9333 117.707C62.0136 117.651 62.1097 117.622 62.2078 117.623C62.8308 117.622 63.4278 117.374 63.8683 116.933C64.3088 116.493 64.5568 115.896 64.5582 115.273C64.5567 115.175 64.5863 115.078 64.6426 114.998C64.6989 114.918 64.7792 114.857 64.8719 114.825C64.943 114.8 65.019 114.792 65.0937 114.803C65.1683 114.813 65.2394 114.841 65.3009 114.885C65.3624 114.928 65.4125 114.986 65.4471 115.053C65.4816 115.12 65.4996 115.195 65.4994 115.27C65.4985 116.143 65.1511 116.981 64.5335 117.598C63.9159 118.216 63.0785 118.563 62.2051 118.564Z" fill="#6AB9F6"/>
<defs>
<filter id="filter0_d_5168_28758" x="15.5885" y="34.805" width="126.502" height="126.502" filterUnits="userSpaceOnUse" color-interpolation-filters="sRGB">
<feFlood flood-opacity="0" result="BackgroundImageFix"/>
<feColorMatrix in="SourceAlpha" type="matrix" values="0 0 0 0 0 0 0 0 0 0 0 0 0 0 0 0 0 0 127 0" result="hardAlpha"/>
<feOffset dy="1.33865"/>
<feGaussianBlur stdDeviation="4.68526"/>
<feComposite in2="hardAlpha" operator="out"/>
<feColorMatrix type="matrix" values="0 0 0 0 0 0 0 0 0 0 0 0 0 0 0 0 0 0 0.1 0"/>
<feBlend mode="normal" in2="BackgroundImageFix" result="effect1_dropShadow_5168_28758"/>
<feBlend mode="normal" in="SourceGraphic" in2="effect1_dropShadow_5168_28758" result="shape"/>
</filter>
</defs>
</svg>
