<svg width="24" height="24" viewBox="0 0 24 24" fill="none" xmlns="http://www.w3.org/2000/svg">
<path d="M2.83285 18.2422C2.83285 18.2455 2.83285 18.2516 2.8291 18.26C2.83051 18.2544 2.83145 18.2483 2.83285 18.2422ZM20.62 19.0124C20.4657 19.009 20.3133 18.9773 20.1705 18.9186L17.5089 17.975L17.4893 17.9671C17.4312 17.9429 17.3689 17.9308 17.306 17.9314C17.248 17.9315 17.1905 17.942 17.1363 17.9624C17.0716 17.9868 16.4889 18.2057 15.8777 18.3735C15.5463 18.4644 14.3927 18.7611 13.4669 18.7611C11.1007 18.7611 8.88816 17.8518 7.2377 16.2003C6.4314 15.399 5.79206 14.4457 5.35669 13.3956C4.92131 12.3455 4.69855 11.2195 4.70129 10.0827C4.70127 9.49038 4.76508 8.89978 4.8916 8.32113C5.30363 6.41707 6.39488 4.68504 7.96426 3.44613C9.57411 2.18334 11.5615 1.49793 13.6075 1.49988C16.0549 1.49988 18.3354 2.43738 20.0294 4.13332C21.6307 5.73973 22.5082 7.85191 22.5011 10.0804C22.4997 11.7362 22.0053 13.3542 21.0808 14.728L21.0719 14.7411L21.0372 14.788C21.0293 14.7988 21.0213 14.8091 21.0138 14.8199L21.0068 14.8325C20.9881 14.8643 20.9712 14.897 20.9561 14.9305L21.6939 17.5527C21.7266 17.6609 21.7442 17.773 21.7464 17.886C21.7466 18.034 21.7176 18.1805 21.6611 18.3173C21.6045 18.454 21.5216 18.5782 21.4169 18.6829C21.3123 18.7875 21.1881 18.8705 21.0513 18.927C20.9146 18.9836 20.768 19.0126 20.62 19.0124Z" fill="#6EB52D"/>
<path d="M14.0564 19.9401C14.008 19.8459 13.9398 19.7633 13.8566 19.6977C13.7734 19.6322 13.677 19.5854 13.5741 19.5604C13.3031 19.4887 12.9872 19.5009 12.7458 19.4831C10.4664 19.3246 8.32148 18.3464 6.70737 16.7292C5.2724 15.3023 4.33982 13.4478 4.05002 11.445C3.9844 10.9884 3.9844 10.875 3.9844 10.875C3.98437 10.7227 3.93796 10.5739 3.85134 10.4486C3.76472 10.3233 3.64199 10.2274 3.4995 10.1735C3.357 10.1197 3.20149 10.1105 3.05365 10.1472C2.90581 10.1839 2.77265 10.2648 2.6719 10.379C2.6719 10.379 2.30252 10.7812 2.12815 11.1848C1.63909 12.3116 1.43053 13.5402 1.52033 14.7653C1.61014 15.9904 1.99563 17.1754 2.64377 18.2189C2.76565 18.4219 2.76565 18.5156 2.73846 18.7265C2.61049 19.3879 2.38643 20.5547 2.26971 21.1598C2.23107 21.3561 2.24544 21.5591 2.31135 21.7479C2.37727 21.9368 2.49234 22.1046 2.64471 22.2342L2.66627 22.2525C2.86784 22.4126 3.11762 22.4998 3.37502 22.5C3.51981 22.5001 3.66318 22.4716 3.7969 22.4161L6.30518 21.4481C6.39154 21.4153 6.48694 21.4153 6.5733 21.4481C7.56096 21.8156 8.58893 22.0106 9.56299 22.0106C10.7767 22.0117 11.9756 21.7451 13.0744 21.2297C13.3303 21.1097 13.7306 20.9794 13.965 20.7084C14.0537 20.6033 14.1097 20.4745 14.1259 20.338C14.1421 20.2014 14.118 20.0631 14.0564 19.9401Z" fill="#6EB52D"/>
</svg>
